<svg id="Layer_1" data-name="Layer 1" xmlns="http://www.w3.org/2000/svg" viewBox="0 0 119.3 122.88"><defs><style>.cls-1{fill-rule:evenodd;}</style></defs><title>gamification</title><path fill="#ffffff" class="cls-1" d="M47.53,78.63,44,82.15V75.1l3.52,3.53ZM43.38,46.85l-.06.25a18.43,18.43,0,0,1,3.82,4c24.13,0-9.51,0,25,0A19.18,19.18,0,0,1,76,47.05a2.16,2.16,0,0,1-.16-.51c-.1-.47-.24-1-.39-1.47s-.31-.9-.46-1.28l-.07-.14a18.17,18.17,0,0,0-1.54-2.87,17.31,17.31,0,0,0-2-2.44,16.61,16.61,0,0,0-2.43-2,18.17,18.17,0,0,0-2.87-1.54,15.73,15.73,0,0,0-3.12-1,17.49,17.49,0,0,0-6.66,0,16.62,16.62,0,0,0-3,.89l-.14.07a18.17,18.17,0,0,0-2.87,1.54,16.61,16.61,0,0,0-2.43,2,17.31,17.31,0,0,0-2,2.44,18.17,18.17,0,0,0-1.54,2.87,12.88,12.88,0,0,0-.58,1.57,16.21,16.21,0,0,0-.4,1.63ZM38.9,44.76c.08-.31.17-.62.27-.94.21-.7.46-1.38.74-2.06v0a22.46,22.46,0,0,1,2-3.64,20.69,20.69,0,0,1,2.58-3.16h0a20.69,20.69,0,0,1,3.16-2.58,22.46,22.46,0,0,1,3.64-2l.2-.08a20.29,20.29,0,0,1,3.88-1.18,22,22,0,0,1,8.56,0A20.65,20.65,0,0,1,68,30.37h0a22.46,22.46,0,0,1,3.64,2,20.69,20.69,0,0,1,3.16,2.58h0A20.69,20.69,0,0,1,77.4,38.1a23.31,23.31,0,0,1,2,3.64l.07.2c.25.6.46,1.16.62,1.68.11.34.2.69.3,1,8.36-2.9,18.1,2.23,24.53,9.24V46.46a2.31,2.31,0,0,0-.14-.82,2.76,2.76,0,0,0-.53-.76,2,2,0,0,0-1.57-.64H95.6a2.42,2.42,0,0,1-2.39-2c-.16-.65-.35-1.32-.56-2s-.46-1.41-.76-2.18l0-.12c-.27-.71-.55-1.38-.83-2s-.64-1.33-1-2a2.41,2.41,0,0,1,.4-2.84L96,25.45a2.09,2.09,0,0,0,.49-.67,2,2,0,0,0,.15-.81,2,2,0,0,0-.16-.83,2.39,2.39,0,0,0-.54-.78l-6.78-6.77a2.46,2.46,0,0,0-.77-.54,2.1,2.1,0,0,0-.84-.15,2.19,2.19,0,0,0-.85.15,2.3,2.3,0,0,0-.73.52l-5.06,5a2.4,2.4,0,0,1-3.07.28c-.58-.38-1.21-.74-1.86-1.09s-1.38-.72-2-1-1.4-.61-2.13-.89-1.39-.52-2.18-.78a2.43,2.43,0,0,1-1.67-2.3V7.08a2.5,2.5,0,0,0-.15-.9l-.05-.11a2.2,2.2,0,0,0-.44-.59,2.16,2.16,0,0,0-1.6-.64H56a2.16,2.16,0,0,0-.83.15,2.58,2.58,0,0,0-.76.52,2.21,2.21,0,0,0-.47.7l0,.07a2.2,2.2,0,0,0-.13.8v7.07a2.42,2.42,0,0,1-2,2.38c-.77.19-1.48.38-2.12.57s-1.45.48-2.14.75l-.13,0c-.61.24-1.27.52-2,.84s-1.37.66-2,1a2.41,2.41,0,0,1-2.84-.4L35,13.76a2.16,2.16,0,0,0-.68-.49,1.87,1.87,0,0,0-.8-.15,2,2,0,0,0-.83.16,2.39,2.39,0,0,0-.78.54c-2.29,2.18-4.54,4.55-6.78,6.79a2.39,2.39,0,0,0-.53.76,2.1,2.1,0,0,0-.15.84,2.14,2.14,0,0,0,.15.84,2.23,2.23,0,0,0,.52.74l5,5.06a2.41,2.41,0,0,1,.28,3.07c-.38.58-.74,1.21-1.09,1.86s-.72,1.39-1,2-.61,1.4-.9,2.13-.51,1.39-.77,2.18a2.43,2.43,0,0,1-2.3,1.67H16.63a2.5,2.5,0,0,0-.9.15l-.12,0a2.41,2.41,0,0,0-.58.43h0a2.24,2.24,0,0,0-.49.7,2.46,2.46,0,0,0-.15.9v9.69h0C20.63,47,30.55,42,38.9,44.76ZM11.07,58.08a6.82,6.82,0,0,1-1.52-4.34V44.05a7.14,7.14,0,0,1,.51-2.71h0a7,7,0,0,1,3.61-3.74l.24-.12A7.14,7.14,0,0,1,16.63,37h6l.28-.75c.31-.79.65-1.59,1-2.39s.76-1.61,1.15-2.34l.32-.57-3.67-3.68a7,7,0,0,1-1.58-2.3h0a7,7,0,0,1,0-5.44,7.18,7.18,0,0,1,1.56-2.29l6.8-6.82A7.44,7.44,0,0,1,30.8,8.83a7,7,0,0,1,2.72-.55,6.71,6.71,0,0,1,4.95,2.13l4.31,4.24.64-.3c.68-.32,1.43-.63,2.25-.95l.13-.05c.81-.32,1.63-.61,2.47-.86l.68-.2V7.08a7,7,0,0,1,.48-2.59l0-.15A7.08,7.08,0,0,1,51,2.08l0-.05A7.12,7.12,0,0,1,53.35.53,6.72,6.72,0,0,1,56,0H65.7a6.81,6.81,0,0,1,5,2.06,7,7,0,0,1,1.44,2.07l.11.24a7.14,7.14,0,0,1,.51,2.71v6l.75.29c.79.3,1.59.64,2.4,1s1.6.76,2.33,1.15l.57.32,3.69-3.67a7.12,7.12,0,0,1,2.3-1.58,7,7,0,0,1,5.44,0,7,7,0,0,1,2.29,1.56L99.37,19a7.27,7.27,0,0,1,1.55,2.28,7,7,0,0,1,.55,2.72,6.71,6.71,0,0,1-2.13,5l-4.25,4.31.32.67c.35.77.67,1.53,1,2.29l0,.11c.3.78.58,1.61.85,2.48l.19.62h5.22a6.83,6.83,0,0,1,5,2.08l0,.05a7.34,7.34,0,0,1,1.51,2.26h0a6.93,6.93,0,0,1,.52,2.66v9.7a7.22,7.22,0,0,1-.51,2.71h0c-.07.16-.15.33-.23.49l.23.37c7.31,12.72,10.94,31.53,9.89,45a33.06,33.06,0,0,1-2.75,11.68c-1.69,3.48-4.12,5.76-7.38,6.36-4.16.77-9.35-1.42-15.6-7.78-.8-.82-1.64-1.64-2.49-2.49a72.16,72.16,0,0,1-8.58-9.52H37a70.65,70.65,0,0,1-8.59,9.55c-.84.83-1.68,1.65-2.47,2.46-6.25,6.36-11.44,8.55-15.6,7.78-3.26-.6-5.71-2.88-7.39-6.36A33.29,33.29,0,0,1,.18,104.69c-1.09-14,2.91-33.92,10.89-46.61Zm27,8.35v6.46h6.46c7.33,0,7.33,11.07,0,11.07H38.05v6.46c0,7.33-11.07,7.33-11.07,0V84H20.51c-7.32,0-7.32-11.07,0-11.07H27V66.43c0-7.33,11.07-7.33,11.07,0Zm50.56-5.64a5.11,5.11,0,1,1-7.22,0,5.09,5.09,0,0,1,7.22,0Zm0,22.27a5.11,5.11,0,1,1-7.22,0,5.09,5.09,0,0,1,7.22,0Zm12.25-11.62a5.11,5.11,0,1,1-7.22,0,5.09,5.09,0,0,1,7.22,0Zm-24.51,0a5.11,5.11,0,1,1-7.22,0,5.09,5.09,0,0,1,7.22,0ZM32.69,63.79l3.53,3.52h-7l3.52-3.52ZM17.85,78.63l3.53,3.52V75.1l-3.53,3.53ZM32.69,93.46l3.53-3.52h-7l3.52,3.52Z" stroke="#000000"/></svg>